<svg width="203" height="66" viewBox="0 0 203 66" fill="none" xmlns="http://www.w3.org/2000/svg">
<path d="M0.878906 31.4453L3.69141 30.4609C3.83203 31.4453 4.20703 32.2539 4.81641 32.8867C5.44922 33.5195 6.04688 33.9062 6.60938 34.0469L7.41797 34.2578V37.1055C5.35547 37.1055 3.62109 36.2266 2.21484 34.4688C1.34766 33.3672 0.902344 32.3594 0.878906 31.4453ZM1.16016 19.0352C1.16016 16.5039 2.25 14.6055 4.42969 13.3398C5.50781 12.707 6.50391 12.3906 7.41797 12.3906V15.2734C6.59766 15.3672 5.82422 15.8008 5.09766 16.5742C4.44141 17.3008 4.11328 18.1328 4.11328 19.0703C4.11328 20.5 5.14453 21.5781 7.20703 22.3047C7.72266 22.4688 8.50781 22.6914 9.5625 22.9727C10.6641 23.2773 11.4375 23.5117 11.8828 23.6758C13.9922 24.543 15.3398 25.7266 15.9258 27.2266C16.2305 27.9766 16.3828 28.8203 16.3828 29.7578C16.3828 31.7969 15.5977 33.5664 14.0273 35.0664C12.5977 36.4258 10.9805 37.1055 9.17578 37.1055V34.2578C10.1367 34.2109 11.0625 33.7539 11.9531 32.8867C12.8438 31.9727 13.3008 30.9297 13.3242 29.7578C13.3242 28.1172 12.1875 26.9219 9.91406 26.1719C9.42188 26.0078 8.67188 25.8086 7.66406 25.5742C6.58594 25.3164 5.85938 25.1055 5.48438 24.9414C3.49219 24.1211 2.21484 23.043 1.65234 21.707C1.32422 20.9336 1.16016 20.043 1.16016 19.0352ZM9.17578 15.2734V12.3906C11.2148 12.3906 12.9141 13.293 14.2734 15.0977C14.9531 16.0117 15.3281 16.832 15.3984 17.5586L12.5508 18.5078C12.2227 16.8672 11.2852 15.8242 9.73828 15.3789C9.36328 15.3086 9.17578 15.2734 9.17578 15.2734ZM18.7383 37.1055V12.1797H21.5156V19.5273C22.3828 18.7539 23.4492 18.3555 24.7148 18.332V21.0742C23.6602 21.0742 22.7695 21.543 22.043 22.4805C21.7148 22.9258 21.5508 23.3359 21.5508 23.7109V37.1055H18.7383ZM26.3672 21.0742V18.332C28.5469 18.332 30.1875 19.1172 31.2891 20.6875C31.875 21.5312 32.168 22.4336 32.168 23.3945V37.1055H29.3555V23.7109C29.3555 22.8203 28.957 22.1055 28.1602 21.5664C27.6445 21.2383 27.0469 21.0742 26.3672 21.0742ZM34.5586 32.5703V30.8828C34.5586 29.3594 35.1562 28.2461 36.3516 27.543C36.7266 27.3555 38.168 26.9102 40.6758 26.207C43.4648 25.4336 44.8594 24.7539 44.8594 24.168V23.5C44.8594 22.9375 44.7188 22.4219 44.4375 21.9531C43.8984 21.0625 43.0781 20.6172 41.9766 20.6172V17.9102C43.5938 17.9102 44.9414 18.4258 46.0195 19.457C47.168 20.582 47.7422 21.8945 47.7422 23.3945V33.0273C47.7656 33.7539 48.082 34.1406 48.6914 34.1875V36.9648C47.5195 36.9648 46.5703 36.5547 45.8438 35.7344C44.9062 36.5312 43.6172 36.9414 41.9766 36.9648V34.2227C42.1875 34.2227 42.4102 34.2109 42.6445 34.1875C44.1211 33.9531 44.8594 33.0742 44.8594 31.5508V27.5078C44.25 27.8359 43.0781 28.2109 41.3438 28.6328C39.1172 29.1719 37.8633 29.5703 37.582 29.8281C37.3242 30.0625 37.1836 30.4375 37.1602 30.9531V31.9023C37.1836 33.4023 38.2148 34.1758 40.2539 34.2227V36.9648C38.8008 36.9648 37.5352 36.5898 36.457 35.8398C35.1914 34.9492 34.5586 33.8594 34.5586 32.5703ZM34.8047 22.6914C34.8047 21.5664 35.25 20.5586 36.1406 19.668C37.2891 18.4961 38.6719 17.9102 40.2891 17.9102V20.6523C39.8438 20.6523 39.4219 20.7461 39.0234 20.9336C37.9453 21.4492 37.4062 22.3633 37.4062 23.6758L34.8047 22.6914ZM51.3281 37V17.9805H54.3164V20.582C54.9258 19.5508 55.8398 18.7891 57.0586 18.2969C57.7148 18.0391 58.3594 17.9102 58.9922 17.9102H59.625L58.9219 20.793C57.6328 20.8164 56.4844 21.5078 55.4766 22.8672C54.7031 23.9453 54.3164 25.0586 54.3164 26.207V37H51.3281ZM61.7695 15.3789C61.7695 14.6523 62.1094 14.1367 62.7891 13.832C63.0234 13.7383 63.2578 13.6914 63.4922 13.6914C64.1953 13.6914 64.7109 14.0195 65.0391 14.6758C65.1328 14.9102 65.1797 15.1445 65.1797 15.3789C65.1797 16.082 64.8516 16.5977 64.1953 16.9258C63.9609 17.0195 63.7266 17.0664 63.4922 17.0664C62.7656 17.0664 62.2383 16.7383 61.9102 16.082C61.8164 15.8477 61.7695 15.6133 61.7695 15.3789ZM62.0156 37V18.4727H64.9688V37H62.0156ZM68.2383 37V12.1797H71.2617V37H68.2383ZM72.1406 27.4727L79.3125 18.0156H82.8633L75.6211 27.4727L82.8984 37H79.3828L72.1406 27.4727ZM84.9727 30.1445V18.5781C84.9727 17.3359 85.5 16.0703 86.5547 14.7812C87.9609 13.0938 89.7422 12.2383 91.8984 12.2148V15.2734C90.4688 15.2734 89.3555 16 88.5586 17.4531C88.2305 18.0859 88.0664 18.6484 88.0664 19.1406V30.1445C88.0664 31.6211 88.793 32.7695 90.2461 33.5898C90.8555 33.9414 91.3945 34.1172 91.8633 34.1172V37.1758C90.5273 37.1758 89.1914 36.6953 87.8555 35.7344C85.957 34.3281 84.9961 32.4648 84.9727 30.1445ZM93.7969 37.1758V34.1172C94.6172 34.1172 95.4492 33.7539 96.293 33.0273C97.1836 32.2305 97.6406 31.2695 97.6641 30.1445V19.1406C97.6641 18.2266 97.2891 17.3477 96.5391 16.5039C95.7656 15.707 94.8516 15.2969 93.7969 15.2734V12.2148C96.1641 12.2148 98.0625 13.2344 99.4922 15.2734C100.312 16.4453 100.723 17.5469 100.723 18.5781V30.1445C100.723 32.7461 99.5625 34.7383 97.2422 36.1211C96.0234 36.8242 94.875 37.1758 93.7969 37.1758ZM102.902 22.4102V19.5273H105.223V17.4883C105.223 16.1758 105.656 14.9805 106.523 13.9023C107.484 12.7773 108.727 12.2031 110.25 12.1797H111.551L110.883 15.0273H110.215C108.879 15.0977 108.199 15.918 108.176 17.4883V19.5625L110.566 19.5273V22.4102H108.176V37H105.223V22.4102H102.902ZM112.746 22.4102V19.5273H115.066V17.4883C115.066 16.1758 115.5 14.9805 116.367 13.9023C117.328 12.7773 118.57 12.2031 120.094 12.1797H121.395L120.727 15.0273H120.059C118.723 15.0977 118.043 15.918 118.02 17.4883V19.5625L120.41 19.5273V22.4102H118.02V37H115.066V22.4102H112.746ZM123.188 37V12.3906H126.246V23.1133H129.41V26.1016H126.246V37H123.188ZM131.168 26.1016V23.1133H134.297V12.3906H137.391V37H134.297V26.1016H131.168ZM140.133 31.7969V23.1133C140.133 22.0117 140.625 20.9336 141.609 19.8789C142.828 18.6133 144.352 17.9805 146.18 17.9805V20.8281C144.797 20.8281 143.836 21.4023 143.297 22.5508C143.133 22.9023 143.051 23.2539 143.051 23.6055V31.3398C143.051 32.207 143.449 32.9453 144.246 33.5547C144.809 33.9766 145.453 34.1875 146.18 34.1875V37.0352C143.953 37.0352 142.23 36.1328 141.012 34.3281C140.426 33.4375 140.133 32.5938 140.133 31.7969ZM147.691 37.0352V34.1875C148.934 34.1875 149.824 33.625 150.363 32.5C150.551 32.125 150.645 31.7617 150.645 31.4102V23.6055C150.645 22.6445 150.234 21.8828 149.414 21.3203C148.898 20.9922 148.312 20.8281 147.656 20.8281V17.9805C149.812 17.9805 151.477 18.8594 152.648 20.6172C153.234 21.4844 153.527 22.3164 153.527 23.1133V31.7969C153.527 32.9453 153.035 34.0586 152.051 35.1367C150.902 36.3789 149.449 37.0117 147.691 37.0352ZM156.199 31.9375V18.0156H159.188V31.5859C159.188 32.4297 159.609 33.1328 160.453 33.6953C161.016 34.0469 161.637 34.2227 162.316 34.2227V37.1758C160.066 37.1758 158.332 36.2969 157.113 34.5391C156.504 33.6484 156.199 32.7812 156.199 31.9375ZM163.863 37.1758V34.2227C165.129 34.2227 166.055 33.7188 166.641 32.7109C166.852 32.3359 166.957 31.9609 166.957 31.5859V18.0156H169.945V31.9375C169.945 33.0391 169.441 34.1289 168.434 35.207C167.215 36.4961 165.691 37.1523 163.863 37.1758ZM171.984 32.0078L174.762 31.4805C174.762 32.5352 175.312 33.3672 176.414 33.9766C176.953 34.2344 177.469 34.375 177.961 34.3984V37.1758C175.688 37.1758 173.988 36.3555 172.863 34.7148C172.277 33.8477 171.984 32.9453 171.984 32.0078ZM172.16 23.3594C172.16 21.2266 173.133 19.6445 175.078 18.6133C176.016 18.1211 176.953 17.875 177.891 17.875V20.6172C176.812 20.6172 175.98 21.0625 175.395 21.9531C175.09 22.3984 174.938 22.8672 174.938 23.3594C174.938 24.1094 175.523 24.7188 176.695 25.1875C177.586 25.5625 179.309 26.0547 181.863 26.6641C183.457 26.9922 184.594 27.7773 185.273 29.0195C185.625 29.6758 185.801 30.4141 185.801 31.2344C185.801 33.4844 184.898 35.1484 183.094 36.2266C182.039 36.8594 180.832 37.1758 179.473 37.1758V34.3984C180.551 34.3984 181.453 34.0234 182.18 33.2734C182.695 32.7344 182.953 32.1016 182.953 31.375C182.953 30.4375 182.027 29.6875 180.176 29.125C179.707 28.9844 178.957 28.7852 177.926 28.5273C176.824 28.2695 176.027 28.0586 175.535 27.8945C173.754 27.1914 172.676 26.125 172.301 24.6953C172.207 24.2734 172.16 23.8281 172.16 23.3594ZM179.438 20.6523V17.875C181.453 17.875 183.082 18.625 184.324 20.125C185.098 21.0859 185.484 22.0938 185.484 23.1484L182.707 23.6055C182.707 22.3164 182.004 21.4141 180.598 20.8984C180.176 20.7344 179.789 20.6523 179.438 20.6523ZM187.875 31.7969V23.0781C187.898 22 188.414 20.9336 189.422 19.8789C190.641 18.6367 192.117 18.0039 193.852 17.9805V20.7578C192.727 20.7578 191.848 21.25 191.215 22.2344C190.957 22.6562 190.828 23.043 190.828 23.3945V25.7852H198.703V23.3945C198.703 22.3398 198.164 21.5664 197.086 21.0742C196.594 20.8398 196.09 20.7227 195.574 20.7227V17.9805C197.191 17.9805 198.633 18.5547 199.898 19.7031C200.953 20.7109 201.492 21.8242 201.516 23.043V28.6328H190.828V31.7969C190.828 32.4531 191.203 33.0625 191.953 33.625C192.562 34.0469 193.207 34.2578 193.887 34.2578V37C191.754 37 190.078 36.1328 188.859 34.3984C188.203 33.4844 187.875 32.6172 187.875 31.7969ZM195.574 37V34.2227C196.98 34.2227 198.035 33.6133 198.738 32.3945C198.879 32.1367 198.984 31.8906 199.055 31.6562L201.551 32.5703C201.129 34.1875 200.168 35.4062 198.668 36.2266C197.707 36.7422 196.676 37 195.574 37Z" fill="white"/>
<path d="M2.892 58.584L0.348 54.48H1.308L3.612 58.26H5.208V54.48H6.132V58.26H7.728L10.02 54.48H10.992L8.436 58.584L11.304 63H10.332L7.848 59.004H6.132V63H5.208V59.004H3.492L1.008 63H0.036L2.892 58.584ZM14.7038 61.74L19.9838 54.48H20.6798V63H19.8398V55.86L14.6438 63H13.8758V54.48H14.7038V61.74ZM26.2123 56.736C26.1163 57.864 25.9923 58.828 25.8403 59.628C25.6963 60.428 25.5123 61.084 25.2883 61.596C25.0723 62.1 24.8083 62.472 24.4963 62.712C24.1923 62.944 23.8323 63.06 23.4163 63.06L23.2723 62.256C23.4323 62.248 23.5843 62.216 23.7283 62.16C23.8803 62.104 24.0243 62.004 24.1603 61.86C24.2963 61.708 24.4243 61.504 24.5443 61.248C24.6643 60.984 24.7763 60.648 24.8803 60.24C24.9843 59.824 25.0763 59.324 25.1563 58.74C25.2443 58.156 25.3203 57.464 25.3843 56.664L25.5643 54.48H29.8963V63H29.0683V55.224H26.3323L26.2123 56.736ZM36.957 63.06C36.365 63.06 35.821 62.94 35.325 62.7C34.837 62.452 34.417 62.128 34.065 61.728C33.713 61.32 33.441 60.856 33.249 60.336C33.057 59.816 32.961 59.284 32.961 58.74C32.961 58.172 33.061 57.628 33.261 57.108C33.469 56.588 33.753 56.128 34.113 55.728C34.473 55.328 34.897 55.012 35.385 54.78C35.873 54.54 36.401 54.42 36.969 54.42C37.561 54.42 38.101 54.548 38.589 54.804C39.085 55.052 39.505 55.38 39.849 55.788C40.201 56.196 40.473 56.66 40.665 57.18C40.857 57.692 40.953 58.216 40.953 58.752C40.953 59.32 40.849 59.864 40.641 60.384C40.441 60.904 40.161 61.364 39.801 61.764C39.449 62.156 39.029 62.472 38.541 62.712C38.053 62.944 37.525 63.06 36.957 63.06ZM33.801 58.74C33.801 59.204 33.877 59.652 34.029 60.084C34.181 60.508 34.397 60.888 34.677 61.224C34.957 61.552 35.289 61.816 35.673 62.016C36.057 62.208 36.485 62.304 36.957 62.304C37.437 62.304 37.873 62.2 38.265 61.992C38.657 61.784 38.989 61.512 39.261 61.176C39.533 60.84 39.741 60.46 39.885 60.036C40.037 59.612 40.113 59.18 40.113 58.74C40.113 58.276 40.033 57.832 39.873 57.408C39.721 56.976 39.505 56.596 39.225 56.268C38.945 55.94 38.613 55.68 38.229 55.488C37.845 55.288 37.421 55.188 36.957 55.188C36.477 55.188 36.041 55.292 35.649 55.5C35.257 55.7 34.925 55.968 34.653 56.304C34.381 56.64 34.169 57.02 34.017 57.444C33.873 57.868 33.801 58.3 33.801 58.74ZM49.2567 52.008C49.2407 52.392 49.0767 52.7 48.7647 52.932C48.4607 53.156 48.0367 53.268 47.4927 53.268C46.9487 53.268 46.5207 53.156 46.2087 52.932C45.9047 52.7 45.7447 52.392 45.7287 52.008H46.2447C46.2447 52.112 46.2767 52.212 46.3407 52.308C46.4047 52.404 46.4927 52.488 46.6047 52.56C46.7167 52.632 46.8487 52.692 47.0007 52.74C47.1527 52.78 47.3207 52.8 47.5047 52.8C47.8487 52.8 48.1327 52.728 48.3567 52.584C48.5887 52.432 48.7207 52.24 48.7527 52.008H49.2567ZM44.8167 61.74L50.0967 54.48H50.7927V63H49.9527V55.86L44.7567 63H43.9887V54.48H44.8167V61.74ZM59.7319 58.26H61.0279L63.8119 54.48H64.7719L61.7839 58.584L65.0839 63H64.1239L61.0999 59.004H59.7319V63H58.9039V54.48H59.7319V58.26ZM70.6545 63.06C70.0625 63.06 69.5185 62.94 69.0225 62.7C68.5345 62.452 68.1145 62.128 67.7625 61.728C67.4105 61.32 67.1385 60.856 66.9465 60.336C66.7545 59.816 66.6585 59.284 66.6585 58.74C66.6585 58.172 66.7585 57.628 66.9585 57.108C67.1665 56.588 67.4505 56.128 67.8105 55.728C68.1705 55.328 68.5945 55.012 69.0825 54.78C69.5705 54.54 70.0985 54.42 70.6665 54.42C71.2585 54.42 71.7985 54.548 72.2865 54.804C72.7825 55.052 73.2025 55.38 73.5465 55.788C73.8985 56.196 74.1705 56.66 74.3625 57.18C74.5545 57.692 74.6505 58.216 74.6505 58.752C74.6505 59.32 74.5465 59.864 74.3385 60.384C74.1385 60.904 73.8585 61.364 73.4985 61.764C73.1465 62.156 72.7265 62.472 72.2385 62.712C71.7505 62.944 71.2225 63.06 70.6545 63.06ZM67.4985 58.74C67.4985 59.204 67.5745 59.652 67.7265 60.084C67.8785 60.508 68.0945 60.888 68.3745 61.224C68.6545 61.552 68.9865 61.816 69.3705 62.016C69.7545 62.208 70.1825 62.304 70.6545 62.304C71.1345 62.304 71.5705 62.2 71.9625 61.992C72.3545 61.784 72.6865 61.512 72.9585 61.176C73.2305 60.84 73.4385 60.46 73.5825 60.036C73.7345 59.612 73.8105 59.18 73.8105 58.74C73.8105 58.276 73.7305 57.832 73.5705 57.408C73.4185 56.976 73.2025 56.596 72.9225 56.268C72.6425 55.94 72.3105 55.68 71.9265 55.488C71.5425 55.288 71.1185 55.188 70.6545 55.188C70.1745 55.188 69.7385 55.292 69.3465 55.5C68.9545 55.7 68.6225 55.968 68.3505 56.304C68.0785 56.64 67.8665 57.02 67.7145 57.444C67.5705 57.868 67.4985 58.3 67.4985 58.74ZM85.2222 63V56.004L82.1142 61.416H81.6222L78.5142 56.004V63H77.6742V54.48H78.5382L81.8622 60.312L85.2102 54.48H86.0622V63H85.2222ZM89.6848 54.48H96.2608V63H95.4208V55.224H90.5128V63H89.6848V54.48ZM101.787 56.736C101.691 57.864 101.567 58.828 101.415 59.628C101.271 60.428 101.087 61.084 100.863 61.596C100.647 62.1 100.383 62.472 100.071 62.712C99.767 62.944 99.407 63.06 98.991 63.06L98.847 62.256C99.007 62.248 99.159 62.216 99.303 62.16C99.455 62.104 99.599 62.004 99.735 61.86C99.871 61.708 99.999 61.504 100.119 61.248C100.239 60.984 100.351 60.648 100.455 60.24C100.559 59.824 100.651 59.324 100.731 58.74C100.819 58.156 100.895 57.464 100.959 56.664L101.139 54.48H105.471V63H104.643V55.224H101.907L101.787 56.736ZM114.824 62.256V63H109.1V54.48H114.716V55.224H109.94V58.296H114.104V59.004H109.94V62.256H114.824ZM118.692 58.26H119.988L122.772 54.48H123.732L120.744 58.584L124.044 63H123.084L120.06 59.004H118.692V63H117.864V54.48H118.692V58.26ZM125.607 58.68C125.607 58.168 125.695 57.66 125.871 57.156C126.055 56.644 126.319 56.188 126.663 55.788C127.007 55.388 127.431 55.064 127.935 54.816C128.439 54.56 129.011 54.432 129.651 54.432C130.411 54.432 131.059 54.604 131.595 54.948C132.139 55.292 132.539 55.74 132.795 56.292L132.135 56.7C131.999 56.42 131.831 56.184 131.631 55.992C131.439 55.8 131.231 55.644 131.007 55.524C130.783 55.404 130.551 55.32 130.311 55.272C130.071 55.216 129.835 55.188 129.603 55.188C129.091 55.188 128.639 55.292 128.247 55.5C127.855 55.708 127.523 55.98 127.251 56.316C126.987 56.652 126.787 57.032 126.651 57.456C126.515 57.872 126.447 58.296 126.447 58.728C126.447 59.2 126.527 59.652 126.687 60.084C126.855 60.516 127.079 60.9 127.359 61.236C127.647 61.564 127.983 61.828 128.367 62.028C128.759 62.22 129.183 62.316 129.639 62.316C129.879 62.316 130.123 62.288 130.371 62.232C130.627 62.168 130.871 62.072 131.103 61.944C131.343 61.808 131.563 61.644 131.763 61.452C131.963 61.252 132.131 61.012 132.267 60.732L132.963 61.092C132.827 61.412 132.635 61.696 132.387 61.944C132.139 62.184 131.863 62.388 131.559 62.556C131.255 62.724 130.931 62.852 130.587 62.94C130.251 63.028 129.919 63.072 129.591 63.072C129.007 63.072 128.471 62.944 127.983 62.688C127.495 62.432 127.075 62.1 126.723 61.692C126.371 61.276 126.095 60.808 125.895 60.288C125.703 59.76 125.607 59.224 125.607 58.68Z" fill="white"/>
</svg>
